<svg xmlns="http://www.w3.org/2000/svg" viewBox="0 0 256 256"><defs><linearGradient id="a" x1="-12.5%" x2="58.3%" y1="-20.8%" y2="65.6%"><stop stop-color="#41D1FF"/><stop offset="1" stop-color="#BD34FE"/></linearGradient><linearGradient id="b" x1="43.7%" x2="50.5%" y1="2.2%" y2="89.1%"><stop stop-color="#FFEA83"/><stop offset=".083" stop-color="#FFDD35"/><stop offset="1" stop-color="#FFA800"/></linearGradient></defs><path fill="url(#a)" d="M255.153 37.938L134.897 252.976a9.489 9.489 0 0 1-16.501.161L.875 37.958c-3.623-6.236 1.002-14.012 8.037-13.535l118.641 7.63a5.43 5.43 0 0 0 5.387-3.21L147.722 5.15c2.395-5.408 10.149-5.392 12.519.023l14.724 33.58a5.43 5.43 0 0 0 5.386 3.212l66.401-4.351c7.043-.461 11.704 7.29 8.092 13.534Z"/><path fill="url(#b)" d="M185.432 15.926L128.49 137.607c-.643 1.39-2.674 1.403-3.333.02L81.564 47.165a2.1 2.1 0 0 1 1.951-2.985l38.89 1.37a2.1 2.1 0 0 0 2.033-1.41l9.151-26.012c.684-1.945 3.42-1.932 4.082.019l9.005 27.322a2.1 2.1 0 0 0 2.01 1.44l34.04-.717c1.89-.04 3.154 1.935 2.348 3.655Z"/></svg>
